<svg xmlns="http://www.w3.org/2000/svg" width="140" height="27.493" viewBox="0 0 140 27.493">
  <g id="logo" transform="translate(-713.86 -603.963)">
    <path id="パス_27" data-name="パス 27" d="M797.269,635.953c-1.675,0-2.49-.515-2.49-1.575a4.054,4.054,0,0,1,.263-1.3l1.7-4.813-7.209,6.1a7.293,7.293,0,0,1-3.763,1.6h-3.332l4.531-12.894h6.655l-2.331,6.6,6.439-5.278a7.665,7.665,0,0,1,4.914-1.853l.209,0a1.616,1.616,0,0,1,1.735,1.848,4.855,4.855,0,0,1-.3,1.558l-2.6,7.253h7.977a3.829,3.829,0,0,1-2.07,2.193,5.9,5.9,0,0,1-2.554.568Z" transform="translate(-18.052 -4.887)"/>
    <path id="パス_28" data-name="パス 28" d="M818.957,636.142l-.815-12.894h6.706l.121,9.932,7.57-9.932h15.1a3.777,3.777,0,0,1-2.074,2.193,5.9,5.9,0,0,1-2.555.567h-8.269L826.5,636.142Z" transform="translate(-27.45 -5.076)"/>
    <path id="パス_29" data-name="パス 29" d="M847.625,636.533a4.892,4.892,0,0,1-3.576-1.352,4.773,4.773,0,0,1-1.369-3.536,7.489,7.489,0,0,1,3.047-6.288,11.119,11.119,0,0,1,6.888-2.108h10.872l-3.664,10.134h6.415c-.648,1.857-2.131,2.761-4.528,2.761H856c-2,0-2.977-.606-2.977-1.848v-.476l-.313.357a6.544,6.544,0,0,1-5.089,2.356m2.131-5.864a3.237,3.237,0,0,0-.127.839c0,1.244,1.174,1.874,3.492,1.874h.127l2.6-7.373h-4.414Z" transform="translate(-33.909 -5.077)"/>
    <path id="パス_30" data-name="パス 30" d="M756.637,636.533a4.891,4.891,0,0,1-3.576-1.352,4.771,4.771,0,0,1-1.37-3.536,7.49,7.49,0,0,1,3.047-6.288,11.121,11.121,0,0,1,6.888-2.108H772.5l-3.663,10.134h6.415c-.648,1.857-2.132,2.761-4.528,2.761h-5.7c-2,0-2.978-.606-2.978-1.848v-.476l-.312.357a6.548,6.548,0,0,1-5.089,2.356m2.131-5.864a3.2,3.2,0,0,0-.127.839c0,1.244,1.174,1.874,3.492,1.874h.126l2.6-7.373h-4.414Z" transform="translate(-9.958 -5.077)"/>
    <path id="パス_31" data-name="パス 31" d="M876.37,633.982c-2.751,0-4.09-.8-4.09-2.433a3.474,3.474,0,0,1,.038-.481,2.209,2.209,0,0,1,1.16-1.683,3.758,3.758,0,0,1,1.973-.522h.077c1.363.037,3.254.808,5.617,2.291l.136.085.1-.124a4.348,4.348,0,0,0,1.072-2.725,12.6,12.6,0,0,0-.848-3.08l-.091-.254-2.35,2.142h-3.371l4.953-4.581-.072-.124a5.974,5.974,0,0,1-.473-.962,5.033,5.033,0,0,1-.261-1.509l4.677-4.982c2.014.362,2.992,1.262,2.992,2.749a4.248,4.248,0,0,1-.805,2.49l-.055.078.033.088q.721,1.911,1.462,3.821a12.154,12.154,0,0,1,.884,3.912,3.557,3.557,0,0,1-1.265,2.73l-.349.312h8.046a2.71,2.71,0,0,1-1.39,1.882,5.459,5.459,0,0,1-2.991.878Z" transform="translate(-41.701 -2.916)"/>
    <path id="パス_32" data-name="パス 32" d="M730.285,631.066a25.992,25.992,0,0,1-10.837-1.933c-3.745-1.752-5.624-4.64-5.587-8.585a13.215,13.215,0,0,1,2.059-6.691,19.546,19.546,0,0,1,7.842-7.262,24.265,24.265,0,0,1,10.489-2.591q.755-.043,1.429-.042c3.682,0,5.161.9,5.715,1.434a4.334,4.334,0,0,1,1.436,3.184,4.238,4.238,0,0,1-1.556,3.314,5.2,5.2,0,0,1-3.487,1.282,5.3,5.3,0,0,1-3.528-1.282,4.237,4.237,0,0,1-1.555-3.314,3.728,3.728,0,0,1,.147-1.114l.077-.237-.248,0c-2.823.026-5.42,1.505-7.718,4.393a13.588,13.588,0,0,0-3.234,8.453c0,5.459,3.593,8.227,10.682,8.227h9.58c-.452,1.857-1.93,2.761-4.513,2.761Z" transform="translate(0)"/>
  </g>
</svg>
